<svg width="44" height="43" viewBox="0 0 44 43" fill="none" xmlns="http://www.w3.org/2000/svg">
<path fill-rule="evenodd" clip-rule="evenodd" d="M27.203 7.79259C25.7561 6.99982 24.1037 6.54284 22.3552 6.51942C22.2857 6.51849 22.2066 6.51849 22.0619 6.51849H22.0556H22.0494C21.9046 6.51849 21.8256 6.51849 21.756 6.51942C16.5688 6.58888 12.2279 10.4742 11.586 15.622C11.5774 15.6911 11.5687 15.7697 11.5527 15.9137L11.552 15.9196L11.1032 19.959C10.9887 20.9899 10.9354 21.4629 10.8357 21.9207C10.691 22.5851 10.4729 23.2314 10.1853 23.8475C9.9871 24.2721 9.74286 24.6807 9.20919 25.5701L7.71118 28.0668L7.68473 28.1109C7.21483 28.894 6.82642 29.5413 6.60668 30.0711C6.38115 30.6149 6.26036 31.2047 6.57726 31.7644C6.89415 32.3241 7.462 32.5239 8.04434 32.6103C8.61173 32.6945 9.36662 32.6945 10.2799 32.6944H10.3313H33.7799H33.8313C34.7446 32.6945 35.4995 32.6945 36.0669 32.6103C36.6492 32.5239 37.2171 32.3241 37.534 31.7644C37.8509 31.2047 37.7301 30.6149 37.5045 30.0711C37.2848 29.5413 36.8964 28.894 36.4265 28.1109L36.4 28.0668L34.902 25.5701C34.3684 24.6807 34.1241 24.2721 33.9259 23.8475C33.6383 23.2314 33.4202 22.5851 33.2756 21.9207C33.1759 21.4629 33.1226 20.9899 33.008 19.959L32.8123 18.1976C32.4273 18.3217 32.0254 18.4079 31.6108 18.4521L31.7933 20.0939L31.7976 20.1329C31.9067 21.115 31.9665 21.6537 32.0813 22.1808C32.2453 22.9337 32.4925 23.6661 32.8184 24.3644C33.0466 24.8533 33.3254 25.318 33.8338 26.1653L33.854 26.1989L35.352 28.6956C35.855 29.534 36.1948 30.1034 36.3756 30.5393C36.5547 30.9712 36.5046 31.1018 36.4704 31.1622C36.4362 31.2225 36.35 31.3327 35.8875 31.4013C35.4207 31.4706 34.7577 31.4722 33.7799 31.4722H10.3313C9.35356 31.4722 8.69054 31.4706 8.2237 31.4013C7.76122 31.3327 7.675 31.2225 7.64084 31.1622C7.60667 31.1018 7.55655 30.9712 7.73567 30.5393C7.91646 30.1034 8.25618 29.534 8.75923 28.6956L10.2572 26.1989L10.2774 26.1653L10.2775 26.1652C10.7858 25.318 11.0647 24.8532 11.2928 24.3644C11.6187 23.6661 11.866 22.9337 12.0299 22.1808C12.1447 21.6537 12.2045 21.115 12.3136 20.133L12.3136 20.133L12.318 20.0939L12.7668 16.0546C12.7836 15.903 12.7914 15.8331 12.7989 15.7732C13.3652 11.231 17.1955 7.80282 21.7724 7.74154C21.8327 7.74073 21.9031 7.74072 22.0556 7.74072C22.2082 7.74072 22.2785 7.74073 22.3389 7.74154C23.7539 7.76049 25.0975 8.10125 26.2954 8.69726C26.565 8.36449 26.8693 8.06108 27.203 7.79259ZM29.3117 9.31909C28.9415 9.51363 28.6096 9.77136 28.3306 10.0779C29.9305 11.5104 31.0292 13.5026 31.3124 15.7732C31.3193 15.8287 31.3265 15.8927 31.3409 16.0223C31.7645 15.9782 32.166 15.86 32.5323 15.6808C32.5298 15.6598 32.5275 15.6405 32.5252 15.622C32.2142 13.1279 31.0349 10.9301 29.3117 9.31909Z" fill="#FEBF32"/>
<path d="M16.8903 32.8067C17.195 34.1332 17.8663 35.3054 18.8002 36.1414C19.734 36.9774 20.8783 37.4305 22.0554 37.4305C23.2325 37.4305 24.3767 36.9774 25.3105 36.1414C26.2444 35.3054 26.9157 34.1332 27.2204 32.8067" stroke="#FEBF32" stroke-width="1.22222" stroke-linecap="round"/>
<ellipse cx="30.9674" cy="12.4768" rx="3.56482" ry="3.56481" fill="#FEBF32"/>
</svg>
