<svg width="22.1" height="26" viewBox="0 0 24 26" fill="none" xmlns="http://www.w3.org/2000/svg">
<path d="M23.0445 8.40277C23.0417 8.36309 23.0342 8.32482 23.0211 8.28701C23.0155 8.27114 23.0118 8.25573 23.0048 8.24033C22.9819 8.19085 22.9539 8.14417 22.9142 8.10449V8.10402C22.9142 8.10402 22.9138 8.10356 22.9138 8.10309L14.946 0.136771C14.9059 0.0961597 14.8583 0.0676852 14.8083 0.0448123C14.7957 0.038744 14.7817 0.0354764 14.7682 0.0308085C14.728 0.0172714 14.687 0.00840231 14.6445 0.00606833C14.6347 0.00513474 14.6258 0 14.6155 0H9.35197C7.6351 0 6.23891 1.39665 6.23891 3.11352V3.89494H4.06225C2.34538 3.89494 0.94873 5.29158 0.94873 7.00846V22.8869C0.94873 24.6038 2.34538 26 4.06225 26H14.6478C16.3642 26 17.7608 24.6038 17.7608 22.8869V22.1051H19.9379C21.6548 22.1051 23.051 20.7089 23.051 18.992V8.43451C23.051 8.42331 23.0454 8.41397 23.0445 8.40277ZM15.0828 1.59364L21.4569 7.96772H17.2627C16.0607 7.96772 15.0828 6.98978 15.0828 5.78779V1.59364ZM16.8272 22.8865C16.8272 24.088 15.8493 25.0659 14.6478 25.0659H4.06225C2.86025 25.0659 1.88232 24.088 1.88232 22.8865V7.00846C1.88232 5.80646 2.86025 4.82852 4.06225 4.82852H6.70571H8.8595V9.68272C8.8595 11.3996 10.2557 12.7958 11.9721 12.7958H16.8268V21.6378L16.8272 22.8865ZM16.1672 11.8622H11.9726C10.771 11.8622 9.79356 10.8847 9.79356 9.68272V5.48857L16.1672 11.8622ZM19.9379 21.1715H17.7608V12.329C17.7608 12.3182 17.7552 12.3084 17.7543 12.2977C17.7515 12.258 17.7445 12.2198 17.7314 12.1815C17.7258 12.1661 17.7216 12.1507 17.7146 12.1348C17.6922 12.0858 17.6637 12.0391 17.624 11.9994C17.624 11.999 17.6236 11.9985 17.6236 11.9985L9.65632 4.03171C9.61571 3.99156 9.56856 3.96309 9.51861 3.94021C9.50508 3.93415 9.49154 3.93041 9.47754 3.92574C9.43739 3.91174 9.39725 3.90334 9.35477 3.901C9.34497 3.90007 9.3361 3.89494 9.32583 3.89494H7.17204V3.11352C7.17204 1.91152 8.14997 0.933589 9.3515 0.933589H14.1488V5.78825C14.1488 7.50513 15.5454 8.90178 17.2623 8.90178H22.1165V18.992C22.1174 20.1935 21.1395 21.1715 19.9379 21.1715Z" fill="#FEBF32"/>
</svg>
