<svg width="33" height="47" viewBox="0 0 33 32" fill="none" xmlns="http://www.w3.org/2000/svg">
<path d="M26.9264 6.01796C28.2883 7.3799 29.3687 8.99675 30.1057 10.7762C30.8428 12.5557 31.2222 14.4629 31.2222 16.3889C31.2222 18.315 30.8428 20.2222 30.1057 22.0017C29.3687 23.7811 28.2883 25.398 26.9264 26.7599C25.5645 28.1218 23.9476 29.2022 22.1682 29.9392C20.3887 30.6763 18.4815 31.0557 16.5554 31.0557C14.6294 31.0557 12.7222 30.6763 10.9427 29.9392C9.16325 29.2022 7.5464 28.1218 6.18447 26.7599C3.43392 24.0093 1.88867 20.2788 1.88867 16.3889C1.88867 12.4991 3.43392 8.76851 6.18447 6.01796C8.93502 3.26741 12.6656 1.72217 16.5554 1.72217C20.4453 1.72217 24.1758 3.26741 26.9264 6.01796" stroke="#FEBF32" stroke-width="1.83333" stroke-linecap="round" stroke-linejoin="round"/>
<path d="M25.2039 28.2152C24.5781 25.2167 20.9636 22.9075 16.5554 22.9075C12.1473 22.9075 8.53276 25.2167 7.90698 28.2152" stroke="#FEBF32" stroke-width="1.83333" stroke-linecap="round" stroke-linejoin="round"/>
<path d="M20.0117 9.67326C20.4864 10.1223 20.8663 10.6619 21.129 11.2603C21.3916 11.8587 21.5315 12.5036 21.5406 13.157C21.5497 13.8104 21.4277 14.459 21.1819 15.0645C20.936 15.6699 20.5712 16.2199 20.1092 16.682C19.6471 17.144 19.0971 17.5088 18.4917 17.7547C17.8862 18.0005 17.2376 18.1225 16.5842 18.1134C15.9308 18.1043 15.2859 17.9644 14.6875 17.7018C14.0891 17.4392 13.5495 17.0593 13.1005 16.5845C12.2369 15.6577 11.7667 14.432 11.7891 13.1654C11.8114 11.8989 12.3245 10.6904 13.2203 9.79469C14.116 8.89896 15.3244 8.38587 16.591 8.36352C17.8575 8.34118 19.0833 8.81131 20.0101 9.67489" stroke="#FEBF32" stroke-width="1.83333" stroke-linecap="round" stroke-linejoin="round"/>
</svg>
